<svg xmlns="http://www.w3.org/2000/svg" viewBox="0 0 32 32" width="32" height="32">
  <defs>
    <linearGradient id="bugGradient" x1="0%" y1="0%" x2="100%" y2="100%">
      <stop offset="0%" style="stop-color:#4338CA;stop-opacity:1" />
      <stop offset="100%" style="stop-color:#C084FC;stop-opacity:1" />
    </linearGradient>
  </defs>
  
  <!-- Bug body -->
  <ellipse cx="16" cy="18" rx="8" ry="10" fill="url(#bugGradient)" stroke="#1F2937" stroke-width="1"/>
  
  <!-- Bug head -->
  <circle cx="16" cy="8" r="5" fill="url(#bugGradient)" stroke="#1F2937" stroke-width="1"/>
  
  <!-- Antennae -->
  <line x1="13" y1="5" x2="11" y2="2" stroke="#1F2937" stroke-width="2" stroke-linecap="round"/>
  <line x1="19" y1="5" x2="21" y2="2" stroke="#1F2937" stroke-width="2" stroke-linecap="round"/>
  <circle cx="11" cy="2" r="1" fill="#F87171"/>
  <circle cx="21" cy="2" r="1" fill="#F87171"/>
  
  <!-- Eyes -->
  <circle cx="13" cy="7" r="1.5" fill="#1F2937"/>
  <circle cx="19" cy="7" r="1.5" fill="#1F2937"/>
  
  <!-- Legs -->
  <line x1="8" y1="12" x2="4" y2="10" stroke="#1F2937" stroke-width="2" stroke-linecap="round"/>
  <line x1="8" y1="18" x2="3" y2="18" stroke="#1F2937" stroke-width="2" stroke-linecap="round"/>
  <line x1="8" y1="24" x2="4" y2="26" stroke="#1F2937" stroke-width="2" stroke-linecap="round"/>
  
  <line x1="24" y1="12" x2="28" y2="10" stroke="#1F2937" stroke-width="2" stroke-linecap="round"/>
  <line x1="24" y1="18" x2="29" y2="18" stroke="#1F2937" stroke-width="2" stroke-linecap="round"/>
  <line x1="24" y1="24" x2="28" y2="26" stroke="#1F2937" stroke-width="2" stroke-linecap="round"/>
  
  <!-- Wing pattern -->
  <ellipse cx="12" cy="15" rx="2" ry="4" fill="rgba(255,255,255,0.2)"/>
  <ellipse cx="20" cy="15" rx="2" ry="4" fill="rgba(255,255,255,0.2)"/>
</svg>